<svg id="svg2" xmlns="http://www.w3.org/2000/svg" viewBox="0 0 1186.4 1183.9"><style>.st0{fill:#fff}.st1{fill:url(#ellipse11_1_)}.st2{fill:#006cb4}</style><g id="g4281"><path id="ellipse4203" class="st0" d="M84.7 794.2c-118.3-247 1.3-534.7 267.2-642.8S929.2 156 1047.5 403s-1.3 534.7-267.2 642.8c-265.8 108-577.3-4.6-695.6-251.6z"/><linearGradient id="ellipse11_1_" gradientUnits="userSpaceOnUse" x1="1432.169" y1="946.493" x2="2308.309" y2="1233.162" gradientTransform="matrix(-.4724 -.9859 -1.0128 .4115 2564.243 2005.502)"><stop offset="0" stop-color="#fd5"/><stop offset="1" stop-color="#fd5" stop-opacity="0"/></linearGradient><path id="ellipse11" class="st1" d="M84.7 794.2c-118.3-247 1.3-534.7 267.2-642.8S929.2 156 1047.5 403s-1.3 534.7-267.2 642.8c-265.8 108-577.3-4.6-695.6-251.6z"/><path id="path13" d="M592.4 4.2c-5.6 0-11.3.1-17 .2C239.9 13.5-24.2 311 5.4 646.3c25.7 290.9 265.6 522.1 555 534.9 166.8 7.4 312.8-45.7 435-158 97.7-89.8 164.6-219.6 181.4-351.8C1221.8 314.5 948 4.3 592.4 4.2zm-.8 220.8c177.2-.3 338 128.4 365.1 314.4 31 212.8-124.1 405.9-338.4 421.5-177.4 12.9-339.2-104-382.9-276.6-47.4-187 56.5-378.4 238.6-439.8 39.2-13.2 78.8-19.4 117.6-19.5zm459.6 479.4c4.2.1 8.4 1.6 12.2 4.7 11.8 9.7 9.2 28.4-4.7 34.2-13.6 5.7-28.1-3.9-28.2-18.5-.1-12.4 10-20.7 20.7-20.4zm-918 .5c3.2-.1 6.4.6 9.1 2.2 13.3 7.8 14.3 25.6 2 34.1-17.1 11.8-38.3-7.4-28.7-26 3.2-6.2 10.5-10.1 17.6-10.3z"/><path id="path15" class="st0" d="M575 1106.4c6.2-19.9 4.2-18.5 26.4-18.5 21.4 0 18.7-1.8 25.4 17 6.2 17.4 5.9 17 12.6 17 7.2 0 7.2.4.3-18.6-3.3-9.3-6.9-19.1-7.8-21.9-2.7-7.7-19.6-54.3-22.1-60.8l-2.2-5.8-8 .3-8 .3-2.3 7c-2.4 7.5-14.1 44-24.9 77.5-8.1 25.1-8 23.2-.5 22.8l6.1-.3 5-16z"/><path id="path17" d="M584.2 1077.5c-.3-.8 1.9-9 4.9-18.2 3-9.3 6.2-20.1 7.2-24.1 2.2-9.1 4.3-9.5 6.3-1.2.7 3 4.2 13.4 7.8 23.2 8.2 22.6 8.7 20.4-4.8 21.2-17.2.8-20.7.7-21.4-.9z"/><path id="path19" class="st0" d="M519.5 1116.2c-.3-1-.8-8.9-1.1-17.8-.7-18.2-2.2-25-6.6-30-3-3.5-3.3-6.5-.6-6.5 10.3 0 22.7-15.3 22.7-28 0-19.4-14.9-28.7-53.6-33.5-6.5-.8-4.9-5.3-14.8 41.6-4.7 22.2-9.3 43.7-10.2 47.6-3 13.2-2.7 14.6 3.1 16.1 6.4 1.6 5.7 3 10.6-20.2 5.4-25.6 5.1-24.8 9.2-24 24.3 4.9 26.9 8.1 27.8 35.2.6 18.4 1.1 19.9 5.8 20.6 6.5.9 8.2.7 7.7-1.1z"/><path id="path21" d="M486.5 1054c-11.4-2.7-11-.4-5-27.6 3.8-16.9 3.1-16.3 14.5-14.1 16.8 3.2 24.8 10.3 24.8 22.1.1 16.4-14.1 24.4-34.3 19.6z"/><path id="path23" class="st0" d="M700.7 1112.8c1.7-.6 3.1-1.6 3.1-2.2 0-1.8-15.8-60.2-19.5-72.3-5.3-17-5-17.1 8.3-3.2 12 12.6 64.8 61.8 66.3 61.8 1.9 0 10.4-2.3 11.2-3S744.3 992 743 990.6c-.9-.9-8.3 1-9.7 2.6-1.2 1.2 15.2 62.9 21.1 79.6 2.6 7.4.3 6.7-8.1-2.5-6.5-7.2-37.2-36.2-61.5-58.1l-5.6-5.1-6.4 1.8c-7.4 2.1-7.6 2.7-4.1 14.7 2.2 7.4 6.4 23.2 11.1 40.8 13.6 52 12.9 49.5 15.6 49.5 1.1 0 3.6-.5 5.3-1.1z"/><path id="path25" class="st0" d="M409.6 1079.4c.7-6 1.7-15.8 2.3-21.8.6-6 2.6-25.3 4.5-43 4.4-40.7 4.7-36.1-2.8-39.7-3.4-1.6-6.8-3-7.4-3-1 0-15.3 14.8-67.8 69.8-12.1 12.7-12 12.4-3.4 15.3l4.2 1.4 12.3-12.8c7.1-7.4 12.9-12.6 13.6-12.3 6.7 2.8 32.6 15.2 33.6 16.2 1.1 1 1.1 2.9.2 10.1-3.3 26.2-3.4 25.7 3.4 29.2 5.7 2.9 5.9 2.7 7.3-9.4z"/><path id="path27" d="M385.9 1032.5c-16.7-7.9-16.5-7.1-3.7-20.3 5.7-5.9 13.5-14.2 17.2-18.5 9.6-11.1 9.4-11.4 6.6 8.8-1 7.7-2.2 18.2-2.6 23.4-1.2 15.3 0 14.9-17.5 6.6z"/><path id="path29" class="st0" d="M856.9 1051.6c0-.7-10.1-19.6-22.5-41.9-12.4-22.3-22.5-41.2-22.5-41.9s5.6-4.5 12.5-8.3 13-7.3 13.6-7.6c1.5-.8.5-4.9-1.9-7.8l-1.8-2.2-25.4 14.1c-14 7.8-29.2 16.2-33.7 18.6-9.7 5.2-9.8 5.4-7.9 9.1 2.9 5.5 3.2 5.5 17.4-2.5 7.3-4.1 13.9-7.2 14.6-7 .7.3 11.3 18.6 23.6 40.8s22.7 40.9 23.3 41.6c1.1 1.5 10.7-3 10.7-5z"/><path id="path31" class="st0" d="M295.3 1013.3c10.9-3.8 16.2-9 42.5-41.7 22.6-28 21.2-25.5 16.1-29.6-5.1-4-5.4-3.9-13.1 5.6-3.5 4.3-9.1 11.2-12.5 15.3s-10 12.3-14.8 18.2c-21.3 26.1-38.3 30.4-52.6 13.1-11.6-14-8.1-23.5 23.1-61.9 24.7-30.5 23.2-27.9 18.3-32.1-5.5-4.7-4.1-5.8-26.5 21.9-27.6 34.2-29.8 37.6-32 50.6-4.3 25.7 26 49.6 51.5 40.6z"/><path id="path33" class="st0" d="M937.2 995.7c5-4.5 14.6-13.1 21.4-19.1 13.5-12 13.4-11.8 9.6-15.8-3.7-3.8-2.8-4.3-19 10.4-8 7.3-15.7 14.1-17.1 15.2l-2.5 1.9-5.1-5.5c-18.8-20.3-21.8-24-20.4-25.9.7-1 7.5-7.3 15.1-14.1 15.1-13.4 14.9-13.1 11.1-17.2-3.5-3.7-3.5-3.7-10.6 3-12.8 12.1-23.8 21.2-24.7 20.6-1.7-1.1-22.9-24.7-22.9-25.6 0-.5 7.2-7.3 16-15.1 8.8-7.9 16-14.6 16-15 0-1.5-5.3-6.9-6.5-6.6-2.8.7-41.5 36.3-41.1 37.9.5 2 69.7 78.9 71 78.9.2.2 4.7-3.5 9.7-8z"/><path id="path35" class="st2" d="M662.9 347.9c-137.2 0-260.7 125.7-282.2 287.2-15.4 115.1 34.3 192.5 126.7 197.7 88.5 5 161.8-34.6 219.7-118.6 10.7-15.6 10.8-13.6-1.2-26-13.7-14.2-13.8-14.2-28.1 3.8-50 62.8-90.8 88.7-139.5 88.4-57.9-.3-81.5-36.2-81.5-124.1 0-14.1-.8-13 11.4-15.4 152-29 256.1-82.8 283.6-146.7 32.8-75.9-19.7-146.3-108.9-146.3zm-26 39.1c9.5-.2 18.7 1.7 27.5 5.9 29.9 14.3 30.4 72.4 1 113.5-29.3 40.9-77 68.3-161 92.5-23.6 6.8-23.6 6.8-23.6 4 0-6.8 9.2-43.9 15.5-62.5 30.8-91 89.4-152.4 140.6-153.4z"/><path id="path37" class="st0" d="M211.9 918.8c10.7-7.8 19.8-14.5 20.3-14.9.7-.6-14.2-22.7-18.5-27.4-.9-1-7.9 3.3-7.9 4.9 0 .5 2.5 4.4 5.5 8.5 7 9.6 7.5 8.4-6.9 18.9-14.7 10.8-14.8 10.8-22 3-23.8-25.7-18-57.3 13.3-72.9 24.4-12.2 49.8-.4 62.1 28.7 3.3 7.7 3.4 7.8 8.3 5.8 4.6-1.9 4.6-3.1.1-12.5-17.8-37.1-54.2-49.5-84.9-28.9-35.3 23.6-34.4 64 2.2 95.1 8.6 7.3 5.8 8.1 28.4-8.3z"/><path id="path39" class="st0" d="M1024.6 900.1l17.2-23.7-3.1-2.8c-4.5-4.1-4.8-3.8-18.8 15.3-9.1 12.5-13.3 17.5-14.7 17.4-2.4-.1-31.4-21.1-31.4-22.8 0-.7 5.2-8.3 11.5-16.9 12.9-17.7 12.5-16.9 8.6-19.7-4.6-3.2-4.9-2.9-17 14-6.3 8.8-12 16-12.6 16-2.4 0-26.9-18.6-27.2-20.6-.1-1.2 4.5-8.5 11.8-18.4 13.7-18.9 13-17.1 8.5-20.6-4.3-3.3-2-5.5-21.4 21.1l-16 22 2.2 2.1c1.8 1.7 26.2 19.5 80.2 58.5 2.2 1.6 4.2 2.8 4.5 2.8.2.1 8.2-10.6 17.7-23.7z"/><path id="path41" class="st0" d="M87.6 606.4c.4-16.5-.3-15.5 10-15.5 4.8 0 23.5.5 41.6 1.2 38.5 1.4 34.6 2.9 34.6-13.8 0-14.8 5.4-12.9-42-14.4-20.6-.6-38.6-1.3-39.8-1.6-2.3-.5-2.3-.5-2-14.2l.3-13.7-7-.8c-3.8-.4-9-.7-11.5-.5l-4.5.3-.7 17c-3.2 76.4-4.5 67.7 10.1 67.3l10.6-.3.3-11z"/><path id="path43" class="st0" d="M1053.8 609.3c9.5-3.9 15.1-11.5 21.4-28.9 5-13.6 6.1-15.8 9.4-17.6 9-4.8 14.9 10.2 10.9 27.4-2.4 10.3-3.4 9.3 12.2 12.7 7.2 1.6 7.8 1.1 9.6-6.9 13.6-59.7-45.2-88.9-64-31.7-4.8 14.5-7.7 18.6-13.1 18.6-10.3 0-13.6-21.1-6.2-39.3.6-1.5.9-3 .6-3.4-1-1-19.9-4.5-21.3-4-3.9 1.5-6.7 27.3-4.5 41.6 3.9 25.6 24.5 40 45 31.5z"/><path id="path45" class="st0" d="M182.9 502.7c5.4-17.3 7.3-15-19.5-23.3-14.8-4.5-15-4.7-13-10.5 3.4-9.6 5.5-10.4 28.9-10.4h17l3.9-12.3c5.2-16.7 6.8-15.4-18.5-15l-21.3.3-5.3 2.9c-2.9 1.6-5.4 2.7-5.6 2.5-.2-.2-1.1-3-2-6.1-3.8-12.6-15.8-20.5-29.7-19.5-17.8 1.3-27.7 15.3-37 52.6-4.3 17.3-3.8 18.9 6.9 21.9 3.5 1 24.9 7.5 47.5 14.4 22.6 7 41.8 12.7 42.8 12.8 1.3-.1 2.5-2.5 4.9-10.3z"/><path id="path47" d="M115.9 464.8c-13.2-4.1-14.4-7.5-7-19.7 6.3-10.4 22.5-5.9 23.7 6.5 1.4 15-2.1 17.8-16.7 13.2z"/><path id="path49" class="st0" d="M1080 490.7c22.3-10.3 24.9-31.2 8.8-72.4-6-15.3-1.6-14.8-37.4-3.9-17.1 5.2-39.5 12-49.9 15.2-22 6.7-20.8 5.2-16.2 19.7 4.4 14.1 2.2 13.4 21.1 7.5 18.5-5.8 17.6-6 21.4 4.8 9.5 27.7 30.2 39.2 52.2 29.1z"/><path id="path51" d="M1057.4 466c-6.1-2.5-13.9-16.1-11.5-20 .9-1.5 24.8-9.1 26.6-8.4 4.3 1.7 6.3 18.3 2.8 23.1-3.8 5.1-12.2 7.6-17.9 5.3z"/><path id="path53" class="st0" d="M220.4 389.9c21.8-10.5 34.8-41.9 25.5-61.7-5.8-12.5-11.2-16.9-53.4-43.4-21.7-13.6-20.2-13.2-24.3-7.1-4.9 7.4-11.4 17.9-11.4 18.5s1 1.2 31 19.7c35.9 22.1 40.4 27 35.9 38.7-5.5 14.5-17.5 14.5-40.2.2-6.2-3.9-13.1-8.3-15.5-9.7-2.4-1.5-9.8-6.1-16.5-10.4s-12.6-7.7-13.2-7.8c-1.2 0-14.5 21.2-14.5 23.2 0 1.3 16.6 12 46.4 30 21.6 13 37.2 16.1 50.2 9.8z"/><path id="path55" class="st0" d="M992.8 390.9c47.8-9.1 66.6-60.2 34.1-92.9-38.7-39-111.3 5-92.7 56.1 9.6 26.6 33.5 41.6 58.6 36.8z"/><path id="path57" d="M967 362.4c-15.3-7.8-15-25.2.5-39.4 22.6-20.7 51.3-17 51.3 6.6.1 20-34.1 41.7-51.8 32.8z"/><path id="path59" class="st0" d="M287.3 302.5c32.5-14.4 48.8-46.3 34.5-67.2-9.8-14.3-24.2-16.5-48.3-7.4-28.2 10.6-30.7-7.5-3-21.7 8.8-4.5 8.5-3.2 2.9-14.4-5.4-10.8-5.6-10.9-13.6-6.9-31.3 15.8-44.2 47-27.2 65.9 10.1 11.2 25 12.5 45.5 4 30.5-12.7 31.1 10.7.6 25.4-4.8 2.3-8.7 4.6-8.8 5.1 0 2.2 10.3 19.6 11.6 19.6.2 0 2.8-1.1 5.8-2.4z"/><path id="path61" class="st0" d="M914.3 273.7c41.8-51.6 45.6-56.3 45.6-57.4 0-.6-4.6-4.8-10.1-9.4l-10.2-8.3-2.6 3c-1.4 1.6-7 8.5-12.5 15.2-5.4 6.7-10.4 12.2-11 12.2-1.3 0-27-20.6-27.4-22-.2-.5 5.1-7.7 11.8-16s12-15.4 11.8-15.9-4.8-4.5-10.3-9l-10-8.1-2.7 2.8c-5 5.1-64.9 79.7-64.9 80.8 0 1.3 18.8 16.4 20.4 16.4 1 0 9-9.3 21.6-25.2 2.5-3.1 5.2-5.7 6.1-5.7 1.7 0 27.9 20.6 27.9 22 0 .4-5.9 8.1-13.1 17-11.7 14.4-13 16.3-11.6 17.7 3.7 3.7 18.4 15.2 19.5 15.3.6-.2 10.4-11.5 21.7-25.4z"/><path id="path63" class="st0" d="M393.4 225.8c6.3-3.3 11.5-6.7 11.5-7.5s-8.3-17.2-18.5-36.5-18.5-35.8-18.5-36.8c0-1.1 3.6-3.6 11-7.5 6-3.2 11.2-6.2 11.6-6.8 1.1-1.8-8.9-19.4-11.1-19.4-2.3 0-73.5 37.4-73.5 38.6 0 1.9 10.3 19.9 11.4 19.9.7 0 5.8-2.5 11.4-5.6 13.3-7.3 11.5-8.7 26.6 19.6 7.2 13.5 15.2 28.3 17.7 33s5.3 10 6.2 11.8c2.1 4.1.6 4.4 14.2-2.8z"/><path id="path65" class="st0" d="M794.3 212c22-10.8 22.4-33.7 1-56.2-10.5-11.1-13.1-15.2-12.1-19.2 2.2-8.7 16.4-6 30.8 5.8l5.6 4.6 6.6-8c8-9.7 8-9.6.5-15.5-26.9-21.1-59.1-20.3-69.8 1.8-6.7 13.8-2.4 26.2 15.4 44.5 13.2 13.5 13.3 22.2.3 22.2-7.1 0-29.8-13-29.8-17.1 0-3.2-4.3.2-9.8 7.8l-6.3 8.6 3.3 3.4c17 17.7 47.1 25.8 64.3 17.3z"/><path id="path67" class="st0" d="M491.1 187.8c17.7-4.4 32.7-8.5 33.2-9 1.3-1.3-3.3-19.9-5-20.6-.7-.3-9.9 1.6-20.3 4.2-22.5 5.6-21.3 5.9-24-5.1-2.8-11-3.8-10.1 17.7-15.4 12.2-3 17.2-4.7 17.2-5.7 0-2.3-4.2-18.8-5-19.7-.4-.4-8.8 1.2-18.6 3.7-20.5 5.2-19.3 5.5-21.8-4.8-2-8.1-1.5-9.1 5.4-10.5 6.5-1.3 28.1-7 30.6-8.1l2.1-.9-2.4-9.8c-1.3-5.4-2.8-10.1-3.2-10.6-.5-.5-12.8 2.1-28.8 6.1-15.3 3.8-29.6 7.3-31.6 7.7-7.9 1.4-8-.5 1.2 35.5 4.5 17.8 8.9 34.9 9.6 37.9 8.1 33.6 7.9 33 9.9 33 .9.2 16.1-3.4 33.8-7.9z"/><path id="path69" class="st0" d="M619.8 172.6c42.7-13.5 50.7-79.4 11.9-98.4-14.2-7-68.1-11.5-71.4-6-.3.5-1 13.6-1.5 29.1s-1.3 38.7-1.9 51.6c-.5 12.9-.6 23.8-.2 24.3 3.7 3.7 50.7 3.3 63.1-.6z"/><path id="path71" d="M585.3 153.8c-.7-1.1 1.3-59.8 2.1-63.8.8-3.7 16.5-2.8 24.4 1.4 22.8 12.3 18.5 54.6-6.3 62-5.8 1.7-19.2 2-20.2.4z"/></g></svg>